{"title":"Sultan (2016) 720p DVDSCR x264 AC3 5.1 -DDR","uid":15303127,"size":3131982358,"categoryP":"video","categoryS":"hd___movies","magnet":"?xt=urn:btih:75f2de2b913edca28ec3066556d567a29dc14203&amp;dn=Sultan+%282016%29+720p+DVDSCR+x264+AC3+5.1+-DDR&amp;tr=udp%3A%2F%2Ftracker.leechers-paradise.org%3A6969&amp;tr=udp%3A%2F%2Fzer0day.ch%3A1337&amp;tr=udp%3A%2F%2Fopen.demonii.com%3A1337&amp;tr=udp%3A%2F%2Ftracker.coppersurfer.tk%3A6969&amp;tr=udp%3A%2F%2Fexodus.desync.com%3A6969","seeders":12,"leechers":6,"uploader":"SaM","files":3,"time":1468507524,"description":"- BollywooD MoviE -\r\n**- SULTAN -**\r\n- 2016 -\r\n** 720p DvDSCR Rip / x264 / AC3 5.1 **\r\n\r\n ~* SCREENSHOTS *~\r\n \nhttp://extraimago.com/image/a6zL \nhttp://extraimago.com/image/a6zQ \nhttp://extraimago.com/image/a6zR \nhttp://extraimago.com/image/a6zy \nhttp://extraimago.com/image/a6zm \nhttp://extraimago.com/image/a6zi \nhttp://extraimago.com/image/a6zl \nhttp://extraimago.com/image/a6zI \nhttp://extraimago.com/image/a6zd \nhttp://extraimago.com/image/a6zh \nhttp://extraimago.com/image/a6zb \nhttp://extraimago.com/image/a6z3 \nhttp://extraimago.com/image/a6z9 \nhttp://extraimago.com/image/a6zM \nhttp://extraimago.com/image/a6zU \nhttp://extraimago.com/image/a6zz \nhttp://extraimago.com/image/a6z0\r\n\r\n[ Specs ]\r\nGeneral\r\nSource = DVDSCR @ Junaid\r\n\r\nFormat : Matroska\r\nFile size : 2.90 GiB\r\nDuration : 2h 49mn\r\nOverall bit rate : 2 450 Kbps\r\nEncoded date : UTC 2016-07-14 01:06:51\r\n\r\nVideo\r\nFormat : AVC\r\nFormat/Info : Advanced Video Codec\r\nFormat profile :   \r\nFormat settings, CABAC : Yes\r\nFormat settings, ReFrames : 8 frames\r\nCodec ID : V_MPEG4/ISO/AVC\r\nDuration : 2h 49mn\r\nBit rate : 2 000 Kbps\r\nWidth : 1 280 pixels\r\nHeight : 544 pixels\r\nDisplay aspect ratio : 2.35:1\r\nFrame rate mode : Constant\r\nFrame rate : 23.976 (24000/1001) fps\r\nColor space : YUV\r\nChroma subsampling : 4:2:0\r\nBit depth : 8 bits\r\nScan type : Progressive\r\nBits/(Pixel*Frame) : 0.120\r\nStream size : 2.37 GiB (82%)\r\nLanguage : English\r\nDefault : Yes\r\nForced : No\r\nColor range : Limited\r\nColor primaries : BT.709\r\n\r\n\r\nAudio\r\nFormat : AC-3\r\nFormat/Info : Audio Coding 3\r\nMode extension : CM (complete main)\r\nFormat settings, Endianness : Big\r\nCodec ID : A_AC3\r\nDuration : 2h 49mn\r\nBit rate mode : Constant\r\nBit rate : 448 Kbps\r\nChannel(s) : 6 channels\r\nChannel positions : Front: L C R, Side: L R, LFE\r\nSampling rate : 48.0 KHz\r\nFrame rate : 31.250 fps (1536 spf)\r\nCompression mode : Lossy\r\nStream size : 543 MiB (18%)\r\nLanguage : Hindi\r\nDefault : Yes\r\nForced : No\r\n\r\n\r\nChapters: YES\r\nSAMPLE : Included\r\n\r\nA DDR Exclusive Release...!","torrent":{"xt":"urn:btih:75f2de2b913edca28ec3066556d567a29dc14203","amp;dn":"Sultan+%282016%29+720p+DVDSCR+x264+AC3+5.1+-DDR","amp;tr":["udp%3A%2F%2Ftracker.leechers-paradise.org%3A6969","udp%3A%2F%2Fzer0day.ch%3A1337","udp%3A%2F%2Fopen.demonii.com%3A1337","udp%3A%2F%2Ftracker.coppersurfer.tk%3A6969","udp%3A%2F%2Fexodus.desync.com%3A6969"],"infoHash":"75f2de2b913edca28ec3066556d567a29dc14203","infoHashBuffer":{"type":"Buffer","data":[117,242,222,43,145,62,220,162,142,195,6,101,86,213,103,162,157,193,66,3]},"announce":[],"urlList":[]}}